<svg width="346" height="346" viewBox="0 0 346 346" fill="none" xmlns="http://www.w3.org/2000/svg">
<rect x="173" width="87" height="86" rx="13" fill="#6E00FF"/>
<rect x="173" y="173" width="87" height="87" rx="13" fill="#6E00FF"/>
<rect y="173" width="86" height="87" rx="13" fill="#8D4AE4"/>
<path d="M260 99C260 91.8203 265.82 86 273 86H333C340.18 86 346 91.8203 346 99V160C346 167.18 340.18 173 333 173H273C265.82 173 260 167.18 260 160V99Z" fill="#B38DE4"/>
<path d="M86 99C86 91.8203 91.8203 86 99 86H160C167.18 86 173 91.8203 173 99V160C173 167.18 167.18 173 160 173H99C91.8203 173 86 167.18 86 160V99Z" fill="#FFF7F7"/>
<path d="M86 273C86 265.82 91.8203 260 99 260H160C167.18 260 173 265.82 173 273V333C173 340.18 167.18 346 160 346H99C91.8203 346 86 340.18 86 333V273Z" fill="white"/>
<circle cx="216.5" cy="130.5" r="40.5" fill="#FF64CB"/>
<circle cx="130.5" cy="216.5" r="40.5" fill="#64F6FF"/>
</svg>
